<?xml version="1.0" encoding="utf-8"?>
<!-- Generator: Adobe Illustrator 28.2.0, SVG Export Plug-In . SVG Version: 6.00 Build 0)  -->
<svg version="1.1" id="Camada_1" xmlns="http://www.w3.org/2000/svg" xmlns:xlink="http://www.w3.org/1999/xlink" x="0px" y="0px"
	 viewBox="0 0 625.3 833.1" style="enable-background:new 0 0 625.3 833.1;" xml:space="preserve">
<style type="text/css">
	.st0{fill:#FFFFFF;}
	.st1{fill:#00C8F0;}
	.st2{fill:#FF6A14;}
	.st3{fill:#092037;}
</style>
<g>
	<g>
		<path class="st3" d="M94,369.1c-6.6-6.6-17.9-1.9-17.9,7.4v151.1c0,5.8,4.7,10.5,10.5,10.5h151.1c9.4,0,14.1-11.3,7.4-17.9
			L94,369.1z"/>
		<path class="st3" d="M538.7,65.1H387.6c-9.4,0-14.1,11.3-7.4,17.9l151.1,151.1c6.6,6.6,17.9,1.9,17.9-7.4V75.6
			C549.2,69.8,544.5,65.1,538.7,65.1z"/>
		<path class="st3" d="M266.1,68.2c-2-2-4.6-3.1-7.4-3.1H86.6c-5.8,0-10.5,4.7-10.5,10.5v172.1c0,2.8,1.1,5.5,3.1,7.4l279.9,279.9
			c2,2,4.6,3.1,7.4,3.1h172.1c5.8,0,10.5-4.7,10.5-10.5V355.5c0-2.8-1.1-5.5-3.1-7.4L266.1,68.2z"/>
	</g>
	<g>
		<path class="st3" d="M133.2,580.8c-7.4,0-21,0-33.1,0c-13.2,0-23.9,10.7-23.9,23.9v33.1v44.5c0,6.3,4.7,11.8,11,12.4
			c7.2,0.7,13.3-5,13.3-12.1V605c0,0,14.7,0,32.8,0c18.1,0,32.8,14.7,32.8,32.8v44.5c0,6.3,4.7,11.8,11,12.4
			c7.2,0.7,13.3-5,13.3-12.1v-44.9c0-15.2-5.9-29.5-16.7-40.3C162.8,586.7,148.4,580.8,133.2,580.8z"/>
		<path class="st3" d="M383.2,597.9c-5.3-5.2-11.6-9.3-18.5-12.1c-6.9-2.8-14.2-4.1-21.7-4h-87.2c-7.5-0.1-14.8,1.2-21.7,4
			c-6.9,2.8-13.2,6.8-18.5,12.1c-5.3,5.2-9.5,11.4-12.4,18.3c-2.9,6.9-4.4,14.2-4.4,21.7c0,7.5,1.5,14.8,4.4,21.7
			c2.9,6.9,7.1,13,12.4,18.3c5.3,5.2,11.6,9.3,18.5,12.1c6.6,2.6,13.6,4,20.8,4c0.3,0,0.6,0,0.9,0h85.6c11.2,0,22.2-2.4,32.4-7
			l12-5.5c7.3-3.3,8.7-13.1,2.6-18.4l0,0c-3.3-2.8-7.9-3.5-11.8-1.7l-2.8,1.3c-10.2,4.6-21.2,7-32.4,7h-85.6l0,0
			c-13.2,0.2-25.2-7.7-30.3-19.6h162.5c6.7,0,12.1-5.4,12.1-12.1c0-7.5-1.5-14.8-4.4-21.7C392.7,609.2,388.5,603.1,383.2,597.9z
			 M225.4,625.7c5-11.8,16.7-19.6,29.7-19.6c0.2,0,0.4,0,0.5,0l87.3,0l0,0c13.2-0.2,25.2,7.7,30.3,19.6H225.4z"/>
		<path class="st3" d="M535.9,580.8c-6.3,0.6-11,6.1-11,12.4v44.5c0,17.1-13.2,31.2-30,32.6v-77.5c0-5.3-3.4-10-8.5-11.6
			c-5.1-1.6-10.5,0.3-13.6,4.7l-40.1,57.8l0.1-53.7h-0.3c-0.6-2.7-2.2-5.2-4.6-6.9c-1-0.7-2-1.3-3.2-1.7c-2.7-0.9-6-1.1-8.7,0.1
			c-4.7,2.1-7.5,6.5-7.5,11.2l-0.2,89.8c0,5.3,3.4,10,8.5,11.6c1.2,0.4,2.4,0.6,3.7,0.6c3.9,0,7.6-1.9,9.9-5.2l40.2-58v51.2
			c0,6.6,5.4,12,12,12c4.4,0,8.5,0,9.5,0c15.2,0,29.5-5.9,40.3-16.7c10.8-10.8,16.7-25.1,16.7-40.3v-44.9
			C549.2,585.8,543.1,580.2,535.9,580.8z"/>
	</g>
	<path class="st2" d="M546.8,768H78.5c-1.3,0-2.4-1.1-2.4-2.4v-1.7c0-1.3,1.1-2.4,2.4-2.4h468.3c1.3,0,2.4,1.1,2.4,2.4v1.7
		C549.2,766.9,548.1,768,546.8,768z"/>
	<g>
		<path class="st1" d="M99.2,728.8c-2.8-1.9-6.9-2.8-10.1-3.3c-2.2-0.3-4.2-1-6.2-2.1c-1.9-1.1-2.8-2.3-2.8-3.9
			c0-2.3,1.8-4.2,4.8-5.1c1.2-0.4,2.6-0.6,3.9-0.6c4.3,0,7.9,1.8,9.7,4.8c0.4,0.7,1.2,1.1,2,1.1c0.4,0,0.8-0.1,1.2-0.3
			c1.1-0.7,1.5-2,0.9-3.2c0,0,0-0.1,0-0.1c-2.6-4.4-8-7.1-14-7.1c-1.8,0-3.5,0.2-5.1,0.7c-5.2,1.5-8.2,5.1-8.2,9.7
			c0,2.8,1.4,5.4,3.6,7c2.9,2.3,7,3.3,9.2,3.7c2.5,0.3,4.9,1,7.2,2c2,1,2.8,2.1,2.8,3.6c0,2.3-1.8,4.2-4.8,5.1
			c-1.2,0.4-2.6,0.6-3.9,0.6c-4.3,0-8-1.8-9.7-4.8c-0.4-0.7-1.2-1.2-2.1-1.2c-0.9,0-1.7,0.5-2.1,1.2c-0.4,0.8-0.4,1.7,0.1,2.4
			c2.6,4.3,8,7,14,7c1.8,0,3.5-0.2,5.1-0.7c5.2-1.5,8.2-5.1,8.2-9.7C103.1,732.9,101.6,730.2,99.2,728.8z"/>
		<path class="st1" d="M163.2,710h-26c-1.3,0-2.4,1.1-2.4,2.4c0,1.3,1.1,2.4,2.4,2.4l10.6,0l0,28.9c0,1.3,1.1,2.4,2.4,2.4
			s2.4-1.1,2.4-2.4l0-28.9h10.6c1.3,0,2.4-1.1,2.4-2.4C165.5,711.1,164.5,710,163.2,710z"/>
		<path class="st1" d="M217.1,711.2c-0.4-0.8-1.2-1.3-2.1-1.3h0c-0.9,0-1.7,0.5-2.1,1.3l-15.3,31.5c-0.3,0.6-0.3,1.2-0.1,1.8
			c0.2,0.6,0.6,1.1,1.2,1.4c0.3,0.2,0.7,0.2,1,0.2c0.3,0,0.5,0,0.8-0.1c0.6-0.2,1.1-0.6,1.4-1.2l4.2-8.7h17.9l4.2,8.7
			c0.4,0.8,1.2,1.3,2.1,1.3c0.4,0,0.7-0.1,1-0.2c0.6-0.3,1-0.8,1.2-1.4c0.2-0.6,0.2-1.3-0.1-1.8L217.1,711.2z M221.6,731.3h-13.3
			l6.6-13.7L221.6,731.3z"/>
		<path class="st1" d="M290.4,709.8c-1.3,0-2.4,1.1-2.4,2.4v24.4l-19.5-25.9c-0.4-0.6-1.2-0.9-1.9-0.9c-0.3,0-0.5,0-0.8,0.1
			c-1,0.3-1.6,1.2-1.6,2.3v31.5c0,1.3,1.1,2.4,2.4,2.4c1.3,0,2.4-1.1,2.4-2.4v-24.4l19.5,25.9c0.4,0.6,1.2,0.9,1.9,0.9
			c0.3,0,0.5,0,0.8-0.1c1-0.3,1.6-1.2,1.6-2.3v-31.5C292.8,710.9,291.7,709.8,290.4,709.8z"/>
		<path class="st1" d="M339.3,710l-0.2,0l-12.3,0c-1.3,0-2.4,1.1-2.4,2.4v31.1c0,1.3,1.1,2.4,2.4,2.4h12.3l0.2,0
			c4.7,0,9.3-1.9,12.6-5.2c3.4-3.3,5.3-8,5.3-12.7c0-4.8-2-9.4-5.3-12.7C348.6,711.9,344,710,339.3,710z M352.6,727.9
			c0,3.5-1.5,6.9-3.9,9.4c-2.4,2.4-5.8,3.8-9.3,3.8l-0.2,0l-9.9,0v-26.3h9.9l0.2,0c3.4,0,6.8,1.4,9.3,3.8
			C351.1,721,352.5,724.4,352.6,727.9z"/>
		<path class="st1" d="M408.8,711.2c-0.4-0.8-1.2-1.3-2.1-1.3h0c-0.9,0-1.7,0.5-2.1,1.3l-15.3,31.5c-0.3,0.6-0.3,1.2-0.1,1.8
			c0.2,0.6,0.6,1.1,1.2,1.4c0.3,0.2,0.7,0.2,1,0.2c0.3,0,0.5,0,0.8-0.1c0.6-0.2,1.1-0.6,1.4-1.2l4.2-8.7h17.9l4.2,8.7
			c0.4,0.8,1.2,1.3,2.1,1.3c0.4,0,0.7-0.1,1-0.2c0.6-0.3,1-0.8,1.2-1.4c0.2-0.6,0.2-1.3-0.1-1.8L408.8,711.2z M413.3,731.3H400
			l6.6-13.7L413.3,731.3z"/>
		<path class="st1" d="M484.5,721c0-2.9-1.1-5.7-3.1-7.7c-2-2-4.8-3.2-7.7-3.2c-3.9,0-9.3,0-15,0l-0.3,0c-1.3,0-2.4,1.1-2.4,2.4
			v31.3c0,1.3,1.1,2.4,2.4,2.4c1.3,0,2.4-1.1,2.4-2.4v-12h11l7.6,13.1c0.3,0.5,0.8,0.9,1.4,1.1c0.2,0.1,0.4,0.1,0.6,0.1
			c0.4,0,0.8-0.1,1.2-0.3c0.5-0.3,0.9-0.8,1.1-1.4c0.2-0.6,0.1-1.3-0.2-1.8l-6.5-11.3C481.4,729.9,484.5,725.7,484.5,721z
			 M460.8,714.8h12.9c1.6,0,3.2,0.7,4.3,1.8c1.1,1.2,1.8,2.7,1.8,4.4l0,0.2c-0.1,3.2-2.9,5.9-6.1,5.9h-12.9V714.8z"/>
		<path class="st1" d="M543.7,715.2c-3.3-3.3-7.9-5.2-12.6-5.2l-0.2,0l-12.3,0c-1.3,0-2.4,1.1-2.4,2.4v31.1c0,1.3,1.1,2.4,2.4,2.4
			h12.3l0.2,0c4.7,0,9.3-1.9,12.6-5.2c3.4-3.3,5.3-8,5.3-12.7C549,723.2,547.1,718.5,543.7,715.2z M544.3,727.9
			c0,3.5-1.5,6.9-3.9,9.4c-2.4,2.4-5.8,3.8-9.3,3.8l-0.2,0l-9.9,0v-26.3h9.9l0.1,0c3.5,0,6.9,1.4,9.3,3.8
			C542.8,721,544.3,724.4,544.3,727.9z"/>
	</g>
</g>
</svg>
