<?xml version="1.0" encoding="utf-8"?>
<!-- Generator: Adobe Illustrator 28.2.0, SVG Export Plug-In . SVG Version: 6.00 Build 0)  -->
<svg version="1.1" id="Camada_1" xmlns="http://www.w3.org/2000/svg" xmlns:xlink="http://www.w3.org/1999/xlink" x="0px" y="0px"
	 viewBox="0 0 625.3 833.1" style="enable-background:new 0 0 625.3 833.1;" xml:space="preserve">
<style type="text/css">
	.st0{fill:#FFFFFF;}
	.st1{fill:#00C8F0;}
	.st2{fill:#FF6A14;}
	.st3{fill:#092037;}
</style>
<g>
	<g>
		<g>
			<path class="st0" d="M94,369.1c-6.6-6.6-17.9-1.9-17.9,7.4v151.1c0,5.8,4.7,10.5,10.5,10.5h151.1c9.4,0,14.1-11.3,7.4-17.9
				L94,369.1z"/>
			<path class="st0" d="M538.7,65.1H387.6c-9.4,0-14.1,11.3-7.4,17.9l151.1,151.1c6.6,6.6,17.9,1.9,17.9-7.4V75.6
				C549.2,69.8,544.5,65.1,538.7,65.1z"/>
			<path class="st0" d="M266.1,68.2c-2-2-4.6-3.1-7.4-3.1H86.6c-5.8,0-10.5,4.7-10.5,10.5v172.1c0,2.8,1.1,5.5,3.1,7.4l279.9,279.9
				c2,2,4.6,3.1,7.4,3.1h172.1c5.8,0,10.5-4.7,10.5-10.5V355.5c0-2.8-1.1-5.5-3.1-7.4L266.1,68.2z"/>
		</g>
	</g>
	<g>
		<path class="st1" d="M101.4,728.8c-2.7-1.9-6.8-2.7-10-3.3c-2.2-0.3-4.2-1-6.1-2c-1.9-1.1-2.7-2.3-2.7-3.9c0-2.3,1.7-4.2,4.8-5.1
			c1.2-0.4,2.6-0.5,3.9-0.5c4.3,0,7.9,1.8,9.6,4.7c0.4,0.7,1.2,1.1,2,1.1c0.4,0,0.8-0.1,1.2-0.3c1.1-0.6,1.5-2,0.9-3.1
			c0,0,0-0.1,0-0.1c-2.6-4.3-7.9-7-13.9-7c-1.8,0-3.5,0.2-5,0.7c-5.1,1.5-8.2,5.1-8.2,9.6c0,2.7,1.3,5.3,3.6,6.9
			c2.9,2.3,7,3.2,9.2,3.6c2.5,0.3,4.9,1,7.2,2c1.9,1,2.8,2,2.8,3.5c0,2.3-1.7,4.2-4.8,5.1c-1.2,0.4-2.6,0.5-3.9,0.5
			c-4.3,0-7.9-1.8-9.7-4.7c-0.4-0.7-1.2-1.2-2-1.2c-0.9,0-1.7,0.5-2.1,1.2c-0.4,0.7-0.4,1.7,0.1,2.4c2.6,4.3,7.9,7,13.9,7
			c1.8,0,3.5-0.2,5-0.7c5.1-1.5,8.2-5.1,8.2-9.6C105.2,732.8,103.8,730.2,101.4,728.8z"/>
		<path class="st1" d="M164.8,710.2H139c-1.3,0-2.4,1.1-2.4,2.4c0,1.3,1.1,2.4,2.4,2.4l10.5,0l0,28.7c0,1.3,1.1,2.4,2.4,2.4
			s2.4-1.1,2.4-2.4l0-28.7h10.5c1.3,0,2.4-1.1,2.4-2.4C167.2,711.2,166.1,710.2,164.8,710.2z"/>
		<path class="st1" d="M218.2,711.3c-0.4-0.8-1.2-1.3-2.1-1.3h0c-0.9,0-1.7,0.5-2.1,1.3l-15.2,31.2c-0.3,0.6-0.3,1.2-0.1,1.8
			c0.2,0.6,0.6,1.1,1.2,1.3c0.3,0.2,0.7,0.2,1,0.2c0.3,0,0.5,0,0.8-0.1c0.6-0.2,1.1-0.6,1.3-1.2l4.2-8.6H225l4.2,8.6
			c0.4,0.8,1.2,1.3,2.1,1.3c0.4,0,0.7-0.1,1-0.2c0.6-0.3,1-0.8,1.2-1.3c0.2-0.6,0.2-1.2-0.1-1.8L218.2,711.3z M222.7,731.3h-13.2
			l6.6-13.6L222.7,731.3z"/>
		<path class="st1" d="M291,710c-1.3,0-2.4,1.1-2.4,2.4v24.2l-19.3-25.6c-0.4-0.6-1.1-0.9-1.9-0.9c-0.3,0-0.5,0-0.7,0.1
			c-1,0.3-1.6,1.2-1.6,2.2v31.2c0,1.3,1.1,2.4,2.4,2.4c1.3,0,2.4-1.1,2.4-2.4v-24.2l19.3,25.6c0.4,0.6,1.1,0.9,1.9,0.9
			c0.3,0,0.5,0,0.7-0.1c1-0.3,1.6-1.2,1.6-2.2v-31.2C293.3,711,292.3,710,291,710z"/>
		<path class="st1" d="M339.4,710.2l-0.2,0l-12.2,0c-1.3,0-2.4,1.1-2.4,2.4v30.8c0,1.3,1.1,2.4,2.4,2.4h12.2l0.2,0
			c4.6,0,9.2-1.9,12.5-5.1c3.4-3.3,5.3-7.9,5.3-12.6c0-4.7-1.9-9.3-5.3-12.6C348.7,712,344.1,710.2,339.4,710.2z M352.5,727.9
			c0,3.5-1.4,6.9-3.9,9.3c-2.4,2.4-5.8,3.8-9.2,3.8l-0.2,0l-9.8,0v-26.1h9.8l0.2,0c3.4,0,6.8,1.4,9.2,3.8
			C351.1,721.1,352.5,724.5,352.5,727.9z"/>
		<path class="st1" d="M408.3,711.3c-0.4-0.8-1.2-1.3-2.1-1.3h0c-0.9,0-1.7,0.5-2.1,1.3l-15.2,31.2c-0.3,0.6-0.3,1.2-0.1,1.8
			c0.2,0.6,0.6,1.1,1.2,1.3c0.3,0.2,0.7,0.2,1,0.2c0.3,0,0.5,0,0.8-0.1c0.6-0.2,1.1-0.6,1.3-1.2l4.2-8.6h17.7l4.2,8.6
			c0.4,0.8,1.2,1.3,2.1,1.3c0.4,0,0.7-0.1,1-0.2c0.6-0.3,1-0.8,1.2-1.3c0.2-0.6,0.2-1.2-0.1-1.8L408.3,711.3z M412.8,731.3h-13.2
			l6.6-13.6L412.8,731.3z"/>
		<path class="st1" d="M483.4,721c0-2.8-1.1-5.6-3.1-7.7c-2-2-4.8-3.2-7.7-3.2c-3.9,0-9.2,0-14.8,0l-0.3,0c-1.3,0-2.3,1.1-2.3,2.4
			v31c0,1.3,1.1,2.4,2.4,2.4c1.3,0,2.4-1.1,2.4-2.4v-11.8h10.9l7.5,13c0.3,0.5,0.8,0.9,1.4,1.1c0.2,0.1,0.4,0.1,0.6,0.1
			c0.4,0,0.8-0.1,1.2-0.3c0.5-0.3,0.9-0.8,1.1-1.4c0.2-0.6,0.1-1.2-0.2-1.8l-6.4-11.2C480.3,729.8,483.4,725.7,483.4,721z
			 M459.9,714.9h12.8c1.6,0,3.2,0.7,4.3,1.8c1.1,1.1,1.8,2.7,1.8,4.3l0,0.2c-0.1,3.2-2.8,5.8-6.1,5.8h-12.8V714.9z"/>
		<path class="st1" d="M542,715.3c-3.3-3.3-7.9-5.1-12.5-5.1l-0.2,0l-12.2,0c-1.3,0-2.4,1.1-2.4,2.4v30.8c0,1.3,1.1,2.4,2.4,2.4
			h12.2l0.2,0c4.6,0,9.2-1.9,12.5-5.1c3.4-3.3,5.3-7.9,5.3-12.6C547.3,723.2,545.4,718.6,542,715.3z M542.6,727.9
			c0,3.5-1.4,6.9-3.9,9.3c-2.4,2.4-5.8,3.8-9.2,3.8l-0.2,0l-9.8,0v-26.1h9.8l0.1,0c3.4,0,6.8,1.4,9.2,3.8
			C541.2,721.1,542.6,724.5,542.6,727.9z"/>
	</g>
	<g>
		<path class="st0" d="M133.2,580.8c-7.4,0-21,0-33.1,0c-13.2,0-23.9,10.7-23.9,23.9v33.1v44.5c0,6.3,4.7,11.8,11,12.4
			c7.2,0.7,13.3-5,13.3-12.1V605c0,0,14.7,0,32.8,0c18.1,0,32.8,14.7,32.8,32.8v44.5c0,6.3,4.7,11.8,11,12.4
			c7.2,0.7,13.3-5,13.3-12.1v-44.9c0-15.2-5.9-29.5-16.7-40.3C162.8,586.7,148.4,580.8,133.2,580.8z"/>
		<path class="st0" d="M383.2,597.9c-5.3-5.2-11.6-9.3-18.5-12.1c-6.9-2.8-14.2-4.1-21.7-4h-87.2c-7.5-0.1-14.8,1.2-21.7,4
			c-6.9,2.8-13.2,6.8-18.5,12.1c-5.3,5.2-9.5,11.4-12.4,18.3c-2.9,6.9-4.4,14.2-4.4,21.7c0,7.5,1.5,14.8,4.4,21.7
			c2.9,6.9,7.1,13,12.4,18.3c5.3,5.2,11.6,9.3,18.5,12.1c6.6,2.6,13.6,4,20.8,4c0.3,0,0.6,0,0.9,0h85.6c11.2,0,22.2-2.4,32.4-7
			l12-5.5c7.3-3.3,8.7-13.1,2.6-18.4l0,0c-3.3-2.8-7.9-3.5-11.8-1.7l-2.8,1.3c-10.2,4.6-21.2,7-32.4,7h-85.6l0,0
			c-13.2,0.2-25.2-7.7-30.3-19.6h162.5c6.7,0,12.1-5.4,12.1-12.1c0-7.5-1.5-14.8-4.4-21.7C392.7,609.2,388.5,603.1,383.2,597.9z
			 M225.4,625.7c5-11.8,16.7-19.6,29.7-19.6c0.2,0,0.4,0,0.5,0l87.3,0l0,0c13.2-0.2,25.2,7.7,30.3,19.6H225.4z"/>
		<path class="st0" d="M535.9,580.8c-6.3,0.6-11,6.1-11,12.4v44.5c0,17.1-13.2,31.2-30,32.6v-77.5c0-5.3-3.4-10-8.5-11.6
			c-5.1-1.6-10.5,0.3-13.6,4.7l-40.1,57.8l0.1-53.7h-0.3c-0.6-2.7-2.2-5.2-4.6-6.9c-1-0.7-2-1.3-3.2-1.7c-2.7-0.9-6-1.1-8.7,0.1
			c-4.7,2.1-7.5,6.5-7.5,11.2l-0.2,89.8c0,5.3,3.4,10,8.5,11.6c1.2,0.4,2.4,0.6,3.7,0.6c3.9,0,7.6-1.9,9.9-5.2l40.2-58v51.2
			c0,6.6,5.4,12,12,12c4.4,0,8.5,0,9.5,0c15.2,0,29.5-5.9,40.3-16.7c10.8-10.8,16.7-25.1,16.7-40.3v-44.9
			C549.2,585.8,543.1,580.2,535.9,580.8z"/>
	</g>
	<path class="st2" d="M546.8,768H78.5c-1.3,0-2.4-1.1-2.4-2.4v-1.7c0-1.3,1.1-2.4,2.4-2.4h468.3c1.3,0,2.4,1.1,2.4,2.4v1.7
		C549.2,766.9,548.1,768,546.8,768z"/>
</g>
</svg>
