<?xml version="1.0" encoding="utf-8"?>
<!-- Generator: Adobe Illustrator 28.2.0, SVG Export Plug-In . SVG Version: 6.00 Build 0)  -->
<svg version="1.1" id="Camada_1" xmlns="http://www.w3.org/2000/svg" xmlns:xlink="http://www.w3.org/1999/xlink" x="0px" y="0px"
	 viewBox="0 0 920 400.5" style="enable-background:new 0 0 920 400.5;" xml:space="preserve">
<style type="text/css">
	.st0{fill:#FFFFFF;}
	.st1{fill:#00C8F0;}
	.st2{fill:#FF6A14;}
	.st3{fill:#092037;}
</style>
<g>
	<g>
		<g>
			<path class="st0" d="M53,245.9c-4.5-4.5-12.1-1.3-12.1,5v102.2c0,3.9,3.2,7.1,7.1,7.1h102.2c6.3,0,9.5-7.7,5-12.1L53,245.9z"/>
			<path class="st0" d="M353.7,40.2H251.5c-6.3,0-9.5,7.7-5,12.1l102.2,102.2c4.5,4.5,12.1,1.3,12.1-5V47.3
				C360.9,43.4,357.7,40.2,353.7,40.2z"/>
			<path class="st0" d="M169.4,42.3c-1.3-1.3-3.1-2.1-5-2.1H48c-3.9,0-7.1,3.2-7.1,7.1v116.4c0,1.9,0.7,3.7,2.1,5l189.4,189.4
				c1.3,1.3,3.1,2.1,5,2.1h116.4c3.9,0,7.1-3.2,7.1-7.1V236.7c0-1.9-0.7-3.7-2.1-5L169.4,42.3z"/>
		</g>
	</g>
	<g>
		<g>
			<path class="st0" d="M489.8,114.7c-6.9,0-19.6,0-30.9,0c-12.4,0-22.4,10-22.4,22.4V168v41.6c0,5.9,4.4,11.1,10.2,11.6
				c6.7,0.6,12.4-4.7,12.4-11.3v-72.6c0,0,13.7,0,30.6,0c16.9,0,30.6,13.7,30.6,30.6v41.6c0,5.9,4.4,11.1,10.2,11.6
				c6.7,0.6,12.4-4.7,12.4-11.3v-42c0-14.2-5.6-27.6-15.6-37.7C517.4,120.2,504,114.7,489.8,114.7z"/>
			<path class="st0" d="M723.5,130.7c-5-4.9-10.8-8.7-17.3-11.3c-6.5-2.6-13.3-3.8-20.3-3.7h-81.5c-7-0.1-13.8,1.1-20.3,3.7
				c-6.5,2.6-12.3,6.4-17.3,11.3c-5,4.9-8.9,10.6-11.6,17.1c-2.7,6.4-4.1,13.3-4.1,20.3c0,7,1.4,13.8,4.1,20.2
				c2.7,6.4,6.6,12.2,11.6,17.1c5,4.9,10.8,8.7,17.3,11.3c6.2,2.5,12.7,3.7,19.4,3.7c0.3,0,0.6,0,0.9,0h80.1
				c10.4,0,20.8-2.2,30.3-6.6l11.2-5.1c6.8-3.1,8.1-12.3,2.5-17.2l0,0c-3.1-2.6-7.4-3.3-11-1.6l-2.7,1.2c-9.5,4.3-19.8,6.6-30.3,6.6
				h-80.1l0,0c-12.4,0.2-23.5-7.2-28.3-18.3h151.9c6.3,0,11.3-5.1,11.3-11.3c0-7-1.4-13.8-4.1-20.2
				C732.4,141.3,728.4,135.5,723.5,130.7z M575.9,156.7c4.7-11,15.6-18.3,27.8-18.3c0.2,0,0.3,0,0.5,0l81.6,0l0,0
				c12.3-0.2,23.5,7.2,28.3,18.3H575.9z"/>
			<path class="st0" d="M866.2,114.7c-5.9,0.6-10.2,5.7-10.2,11.6V168c0,16-12.3,29.2-28,30.5V126c0-5-3.2-9.3-7.9-10.8
				c-4.8-1.5-9.9,0.3-12.7,4.4l-37.5,54.1l0.1-50.2h-0.3c-0.6-2.5-2.1-4.8-4.3-6.5c-0.9-0.7-1.9-1.2-3-1.5c-2.5-0.8-5.6-1-8.1,0.1
				c-4.4,2-7,6-7,10.5l-0.2,83.9c0,5,3.2,9.3,7.9,10.8c1.1,0.4,2.3,0.5,3.4,0.5c3.6,0,7.1-1.8,9.3-4.9l37.6-54.2v47.9
				c0,6.2,5,11.2,11.2,11.2c4.1,0,8,0,8.9,0c14.2,0,27.6-5.6,37.7-15.6c10.1-10.1,15.6-23.4,15.6-37.7v-42
				C878.7,119.4,873,114.1,866.2,114.7z"/>
		</g>
		<path class="st2" d="M876.6,285.8h-438c-1.2,0-2.1-0.9-2.1-2.1l0,0c0-1.2,0.9-2.1,2.1-2.1h438c1.2,0,2.1,0.9,2.1,2.1l0,0
			C878.7,284.9,877.7,285.8,876.6,285.8z"/>
		<g>
			<path class="st1" d="M456.2,254.4c-2.3-1.5-5.7-2.3-8.3-2.8c-1.8-0.3-3.4-0.8-5-1.7c-2-1.1-2.2-2.3-2.2-3.1
				c0-2.5,2.4-3.6,3.9-4.1c1-0.3,2.1-0.4,3.2-0.4c3.5,0,6.4,1.4,7.9,3.8c0.4,0.6,1.1,1,1.8,1c0.4,0,0.7-0.1,1.1-0.3
				c1-0.6,1.3-1.8,0.8-2.8c0,0,0-0.1,0-0.1c-2.2-3.6-6.6-5.9-11.6-5.9c-1.5,0-2.9,0.2-4.2,0.6c-4.3,1.3-6.8,4.3-6.8,8.1
				c0,2.3,1.1,4.5,3,5.8c2.4,1.9,5.8,2.7,7.6,3c2.1,0.3,4,0.8,5.9,1.6c1.6,0.8,2.2,1.6,2.2,2.8c0,2.5-2.4,3.6-3.9,4.1
				c-1,0.3-2.1,0.4-3.2,0.4c-3.5,0-6.4-1.4-7.9-3.8c-0.4-0.6-1.1-1-1.8-1c-0.8,0-1.5,0.4-1.8,1.1c-0.4,0.7-0.3,1.5,0.1,2.1
				c2.1,3.6,6.6,5.8,11.6,5.8c1.5,0,2.9-0.2,4.2-0.6c4.3-1.3,6.8-4.3,6.8-8.1C459.5,257.9,458.2,255.7,456.2,254.4z"/>
			<path class="st1" d="M516.3,239H495c-1.2,0-2.1,0.9-2.1,2.1c0,1.2,0.9,2.1,2.1,2.1l8.6,0l0,23.6c0,1.2,0.9,2.1,2.1,2.1
				s2.1-0.9,2.1-2.1l0-23.6h8.6c1.2,0,2.1-0.9,2.1-2.1C518.4,240,517.5,239,516.3,239z"/>
			<path class="st1" d="M568.4,240.1c-0.3-0.7-1.1-1.2-1.9-1.2h0c-0.8,0-1.5,0.5-1.9,1.2l-12.5,25.8c-0.2,0.5-0.3,1.1-0.1,1.6
				c0.2,0.5,0.6,1,1.1,1.2c0.3,0.1,0.6,0.2,0.9,0.2c0.2,0,0.5,0,0.7-0.1c0.5-0.2,0.9-0.6,1.2-1.1l3.4-7h14.5l3.4,7
				c0.3,0.7,1.1,1.2,1.9,1.2c0.3,0,0.6-0.1,0.9-0.2c0.5-0.2,0.9-0.7,1.1-1.2c0.2-0.5,0.1-1.1-0.1-1.6L568.4,240.1z M571.7,256.5
				h-10.4l5.2-10.7L571.7,256.5z"/>
			<path class="st1" d="M636.1,238.9c-1.2,0-2.1,0.9-2.1,2.1v19.6l-15.7-20.9c-0.4-0.5-1-0.8-1.7-0.8c-0.2,0-0.4,0-0.7,0.1
				c-0.9,0.3-1.4,1.1-1.4,2v25.8c0,1.2,0.9,2.1,2.1,2.1c1.2,0,2.1-0.9,2.1-2.1v-19.6l15.7,20.9c0.4,0.5,1,0.8,1.7,0.8
				c0.2,0,0.4,0,0.7-0.1c0.9-0.3,1.4-1.1,1.4-2V241C638.2,239.8,637.3,238.9,636.1,238.9z"/>
			<path class="st1" d="M683.9,239l-0.1,0h-10.1c-1.2,0-2.1,0.9-2.1,2.1v25.5c0,1.2,0.9,2.1,2.1,2.1h10.1l0.2,0
				c3.9,0,7.7-1.6,10.4-4.3c2.8-2.8,4.4-6.6,4.4-10.5c0-3.9-1.6-7.8-4.4-10.5C691.6,240.6,687.8,239,683.9,239z M694.6,253.9
				c0,2.8-1.2,5.6-3.2,7.6c-2,1.9-4.7,3.1-7.5,3.1l-0.1,0h-8v-21.3h8l0.1,0c2.8,0,5.5,1.1,7.5,3.1
				C693.4,248.3,694.6,251,694.6,253.9z"/>
			<path class="st1" d="M748.7,240.1c-0.3-0.7-1.1-1.2-1.9-1.2c-0.8,0-1.5,0.5-1.9,1.2l-12.5,25.8c-0.2,0.5-0.3,1.1-0.1,1.6
				c0.2,0.5,0.6,1,1.1,1.2c0.3,0.1,0.6,0.2,0.9,0.2c0.2,0,0.5,0,0.7-0.1c0.5-0.2,0.9-0.6,1.2-1.1l3.4-7h14.5l3.4,7
				c0.3,0.7,1.1,1.2,1.9,1.2c0.3,0,0.6-0.1,0.9-0.2c0.5-0.2,0.9-0.7,1.1-1.2c0.2-0.5,0.1-1.1-0.1-1.6L748.7,240.1z M752.1,256.5
				h-10.4l5.2-10.7L752.1,256.5z"/>
			<path class="st1" d="M818.6,248.2c0-2.4-0.9-4.7-2.6-6.4c-1.7-1.7-4-2.7-6.4-2.7c-3.2,0-7.6,0-12.3,0l-0.2,0
				c-1.1,0-2.1,0.9-2.1,2.1v25.6c0,1.2,0.9,2.1,2.1,2.1c1.2,0,2.1-0.9,2.1-2.1v-9.7h8.8l6.2,10.7c0.3,0.5,0.7,0.8,1.3,1
				c0.2,0,0.4,0.1,0.5,0.1c0.4,0,0.7-0.1,1-0.3c0.5-0.3,0.8-0.7,1-1.3c0.1-0.5,0.1-1.1-0.2-1.6l-5.2-9.1
				C816,255.4,818.6,252,818.6,248.2z M814.4,248.1l0,0.1c-0.1,2.6-2.3,4.7-4.9,4.7h-10.4v-9.8h10.4c1.3,0,2.6,0.5,3.5,1.4
				C813.9,245.6,814.4,246.8,814.4,248.1z"/>
			<path class="st1" d="M874.7,243.3c-2.8-2.7-6.6-4.3-10.5-4.3l-0.1,0h-10.1c-1.2,0-2.1,0.9-2.1,2.1v25.5c0,1.2,0.9,2.1,2.1,2.1
				h10.1l0.2,0c3.9,0,7.7-1.6,10.4-4.3c2.8-2.8,4.4-6.6,4.4-10.5C879.1,249.9,877.5,246.1,874.7,243.3z M875,253.9
				c0,2.8-1.2,5.6-3.2,7.6c-2,1.9-4.7,3.1-7.5,3.1l-0.1,0h-8v-21.3h8l0.1,0c2.8,0,5.5,1.1,7.5,3.1C873.8,248.3,875,251,875,253.9z"
				/>
		</g>
	</g>
</g>
</svg>
